<svg width="96" height="96" viewBox="0 0 96 96" fill="none" xmlns="http://www.w3.org/2000/svg">
<path d="M62.8095 29.645C62.8095 33.7294 59.4985 37.0404 55.4141 37.0404C51.3298 37.0404 48.0188 33.7294 48.0188 29.645C48.0188 25.5607 51.3298 22.2497 55.4141 22.2497C59.4985 22.2497 62.8095 25.5607 62.8095 29.645Z" fill="#2E608E"/>
<path d="M87.7688 31.2546C87.7691 29.7692 87.7694 28.7039 87.6208 27.7651C87.0823 24.3652 85.1367 21.4501 82.3939 19.6297C82.0833 19.4236 81.6922 19.6926 81.7419 20.0621C82.1394 23.0186 82.2082 26.5294 82.2199 30.3604C82.2217 30.6749 82.2222 31.0474 82.2222 31.4939V32.1251V32.8136V63.4532C82.2222 63.6837 82.2223 63.9132 82.2222 64.1417V64.7729C82.2222 65.22 82.2217 65.5929 82.2199 65.9077C82.2081 69.7382 82.1393 73.2486 81.7419 76.2048C81.6922 76.5742 82.0833 76.8432 82.3939 76.6371C85.1367 74.8167 87.0823 71.9017 87.6208 68.5017C87.7694 67.5629 87.7691 66.4976 87.7688 65.0123L87.7687 64.7729V31.4939L87.7688 31.2546Z" fill="#2E608E"/>
<path d="M13.8154 31.4939C13.8154 31.0482 13.8159 30.6763 13.8177 30.3621C13.8184 30.1218 13.8194 29.8827 13.8207 29.645C13.8393 26.0922 13.9231 22.8336 14.2957 20.0621C14.3454 19.6926 13.9543 19.4236 13.6437 19.6297C10.9009 21.4502 8.95533 24.3652 8.41684 27.7651C8.26815 28.7039 8.26844 29.7692 8.26884 31.2545L8.26888 31.4939V64.7729L8.26884 65.0123C8.26844 66.4977 8.26815 67.5629 8.41684 68.5017C8.95533 71.9017 10.9009 74.8167 13.6437 76.6371C13.9543 76.8432 14.3454 76.5742 14.2957 76.2048C13.9231 73.4332 13.8393 70.1746 13.8207 66.6218C13.8194 66.384 13.8184 66.145 13.8177 65.9047C13.8159 65.5905 13.8154 65.2186 13.8154 64.7729V64.192C13.8153 63.9468 13.8153 63.7005 13.8154 63.4532L13.8154 33.1398L13.8154 32.8137C13.8153 32.5663 13.8153 32.32 13.8154 32.0749V31.4939Z" fill="#2E608E"/>
<path fill-rule="evenodd" clip-rule="evenodd" d="M64.258 8.81429C61.0523 8.38329 56.9763 8.38335 51.9194 8.38342H44.1182C39.0613 8.38335 34.9853 8.38329 31.7796 8.81429C28.4513 9.26177 25.6489 10.2191 23.4232 12.4448C21.1975 14.6705 20.2402 17.4728 19.7927 20.8011C19.3617 24.0069 19.3618 28.0829 19.3619 33.1398V63.127C19.3618 68.1839 19.3617 72.26 19.7927 75.4657C20.2402 78.794 21.1975 81.5964 23.4232 83.8221C25.6489 86.0478 28.4513 87.0051 31.7796 87.4526C34.9853 87.8836 39.0613 87.8835 44.1182 87.8834H51.9194C56.9762 87.8835 61.0523 87.8836 64.258 87.4526C67.5863 87.0051 70.3887 86.0478 72.6144 83.8221C74.8401 81.5964 75.7974 78.794 76.2449 75.4657C76.6759 72.2599 76.6758 68.1839 76.6757 63.127V33.1398C76.6758 28.0829 76.6759 24.0069 76.2449 20.8011C75.7974 17.4728 74.8401 14.6705 72.6144 12.4448C70.3887 10.2191 67.5863 9.26177 64.258 8.81429ZM67.1327 66.5385L71.0523 70.675C71.1272 68.5409 71.1292 66.0026 71.1292 62.9241V33.3427C71.1292 28.035 71.1233 24.3332 70.7478 21.5402C70.383 18.8269 69.7158 17.3901 68.6924 16.3667C67.669 15.3434 66.2322 14.6761 63.519 14.3113C60.7259 13.9358 57.0242 13.9299 51.7165 13.9299H44.3211C39.0134 13.9299 35.3117 13.9358 32.5186 14.3113C29.8054 14.6761 28.3686 15.3434 27.3452 16.3667C26.3218 17.3901 25.6546 18.8269 25.2898 21.5402C24.9143 24.3332 24.9084 28.035 24.9084 33.3427V51.727L24.9215 51.7135C28.5659 47.9744 34.204 48.2306 37.5753 52.1838L49.2631 65.8888C50.1993 66.9866 51.4308 67.0365 52.3757 66.2578L53.1881 65.5882C57.4649 62.0638 63.3293 62.5246 67.1327 66.5385Z" fill="#2E608E"/>
</svg>
