<svg width="84" height="84" viewBox="0 0 84 84" fill="none" xmlns="http://www.w3.org/2000/svg">
<path fill-rule="evenodd" clip-rule="evenodd" d="M12.3994 54.6382C13.3354 54.574 14.5312 54.573 16.2467 54.573H67.0456C68.7611 54.573 69.9568 54.574 70.8928 54.6382C71.8124 54.7013 72.348 54.8193 72.7569 54.9897C74.0905 55.5454 75.1501 56.6112 75.7025 57.9526C75.8719 58.3639 75.9892 58.9027 76.052 59.8277C76.1158 60.7692 76.1168 61.972 76.1168 63.6976C76.1168 65.4232 76.1158 66.6259 76.052 67.5674C75.9892 68.4925 75.8719 69.0312 75.7025 69.4425C75.1501 70.784 74.0905 71.8498 72.7569 72.4054C72.348 72.5758 71.8124 72.6938 70.8928 72.7569C69.9568 72.8212 68.7611 72.8222 67.0456 72.8222H16.2467C14.5312 72.8222 13.3354 72.8212 12.3994 72.7569C11.4798 72.6938 10.9442 72.5758 10.5353 72.4054C9.20168 71.8498 8.14212 70.784 7.58972 69.4425C7.42035 69.0312 7.30301 68.4925 7.24026 67.5674C7.1764 66.6259 7.17542 65.4232 7.17542 63.6976C7.17542 61.972 7.1764 60.7692 7.24026 59.8277C7.30301 58.9027 7.42035 58.3639 7.58972 57.9526C8.14212 56.6112 9.20169 55.5454 10.5353 54.9897C10.9442 54.8193 11.4798 54.7013 12.3994 54.6382ZM16.2467 67.3474C18.2506 67.3474 19.8751 65.7133 19.8751 63.6976C19.8751 61.6818 18.2506 60.0477 16.2467 60.0477C14.2427 60.0477 12.6182 61.6818 12.6182 63.6976C12.6182 65.7133 14.2427 67.3474 16.2467 67.3474Z" fill="#2E608E"/>
<path fill-rule="evenodd" clip-rule="evenodd" d="M16.2467 29.0241C14.5312 29.0241 13.3354 29.0231 12.3994 28.9589C11.4798 28.8958 10.9442 28.7777 10.5353 28.6074C9.20168 28.0517 8.14212 26.9859 7.58972 25.6444C7.42035 25.2331 7.30301 24.6944 7.24026 23.7693C7.1764 22.8279 7.17542 21.6251 7.17542 19.8995C7.17542 18.1739 7.1764 16.9711 7.24026 16.0297C7.30301 15.1046 7.42035 14.5659 7.58972 14.1546C8.14212 12.8131 9.20168 11.7473 10.5353 11.1916C10.9442 11.0213 11.4798 10.9032 12.3994 10.8401C13.3354 10.7759 14.5312 10.7749 16.2467 10.7749H67.0456C68.7611 10.7749 69.9568 10.7759 70.8928 10.8401C71.8124 10.9032 72.348 11.0213 72.7569 11.1916C74.0905 11.7473 75.1501 12.8131 75.7025 14.1546C75.8719 14.5659 75.9892 15.1046 76.052 16.0297C76.1158 16.9711 76.1168 18.1739 76.1168 19.8995C76.1168 21.6251 76.1158 22.8279 76.052 23.7693C75.9892 24.6944 75.8719 25.2331 75.7025 25.6444C75.1501 26.9859 74.0905 28.0517 72.7569 28.6074C72.348 28.7777 71.8124 28.8958 70.8928 28.9589C69.9568 29.0231 68.7611 29.0241 67.0456 29.0241H16.2467ZM16.2467 32.6739C14.5312 32.6739 13.3354 32.6749 12.3994 32.7392C11.4798 32.8023 10.9442 32.9203 10.5353 33.0907C9.20168 33.6463 8.14212 34.7121 7.58972 36.0536C7.42035 36.4649 7.30301 37.0036 7.24026 37.9287C7.1764 38.8702 7.17542 40.073 7.17542 41.7985C7.17542 43.5241 7.1764 44.7269 7.24026 45.6684C7.30301 46.5934 7.42035 47.1322 7.58972 47.5435C8.14212 48.8849 9.20169 49.9507 10.5353 50.5064C10.9442 50.6768 11.4798 50.7948 12.3994 50.8579C13.3354 50.9221 14.5312 50.9231 16.2467 50.9231H67.0456C68.7611 50.9231 69.9568 50.9221 70.8928 50.8579C71.8124 50.7948 72.348 50.6768 72.7569 50.5064C74.0905 49.9507 75.1501 48.8849 75.7025 47.5435C75.8719 47.1322 75.9892 46.5934 76.052 45.6684C76.1158 44.7269 76.1168 43.5241 76.1168 41.7985C76.1168 40.073 76.1158 38.8702 76.052 37.9287C75.9892 37.0036 75.8719 36.4649 75.7025 36.0536C75.1501 34.7121 74.0905 33.6463 72.7569 33.0907C72.348 32.9203 71.8124 32.8023 70.8928 32.7392C69.9568 32.6749 68.7611 32.6739 67.0456 32.6739H16.2467ZM19.8751 41.7985C19.8751 43.8143 18.2506 45.4484 16.2467 45.4484C14.2427 45.4484 12.6182 43.8143 12.6182 41.7985C12.6182 39.7828 14.2427 38.1487 16.2467 38.1487C18.2506 38.1487 19.8751 39.7828 19.8751 41.7985ZM16.2467 23.5493C18.2506 23.5493 19.8751 21.9152 19.8751 19.8995C19.8751 17.8837 18.2506 16.2497 16.2467 16.2497C14.2427 16.2497 12.6182 17.8837 12.6182 19.8995C12.6182 21.9152 14.2427 23.5493 16.2467 23.5493Z" fill="#2E608E"/>
<path d="M19.8751 19.8995C19.8751 21.9152 18.2506 23.5493 16.2467 23.5493C14.2427 23.5493 12.6182 21.9152 12.6182 19.8995C12.6182 17.8837 14.2427 16.2497 16.2467 16.2497C18.2506 16.2497 19.8751 17.8837 19.8751 19.8995Z" fill="#2E608E"/>
<path d="M19.8751 41.7985C19.8751 43.8143 18.2506 45.4484 16.2467 45.4484C14.2427 45.4484 12.6182 43.8143 12.6182 41.7985C12.6182 39.7828 14.2427 38.1487 16.2467 38.1487C18.2506 38.1487 19.8751 39.7828 19.8751 41.7985Z" fill="#2E608E"/>
<path d="M19.8751 63.6976C19.8751 65.7133 18.2506 67.3474 16.2467 67.3474C14.2427 67.3474 12.6182 65.7133 12.6182 63.6976C12.6182 61.6818 14.2427 60.0477 16.2467 60.0477C18.2506 60.0477 19.8751 61.6818 19.8751 63.6976Z" fill="#2E608E"/>
</svg>
