<svg width="96" height="96" viewBox="0 0 96 96" fill="none" xmlns="http://www.w3.org/2000/svg">
<path d="M51.9126 61.4241C51.9126 53.1792 51.9126 49.0568 54.5322 46.4954C57.1517 43.9341 61.3678 43.9341 69.8001 43.9341C78.2323 43.9341 82.4485 43.9341 85.068 46.4954C87.6876 49.0568 87.6876 53.1792 87.6876 61.4241V70.1691C87.6876 78.4139 87.6876 82.5364 85.068 85.0977C82.4485 87.6591 78.2323 87.6591 69.8001 87.6591C61.3678 87.6591 57.1517 87.6591 54.5322 85.0977C51.9126 82.5364 51.9126 78.4139 51.9126 70.1691V61.4241Z" fill="#2E608E"/>
<path d="M8.1875 34.3941C8.1875 42.6389 8.1875 46.7614 10.8071 49.3227C13.4266 51.8841 17.6428 51.8841 26.075 51.8841C34.5072 51.8841 38.7234 51.8841 41.3429 49.3227C43.9625 46.7614 43.9625 42.6389 43.9625 34.3941V25.6491C43.9625 17.4042 43.9625 13.2818 41.3429 10.7204C38.7234 8.15906 34.5072 8.15906 26.075 8.15906C17.6428 8.15906 13.4266 8.15906 10.8071 10.7204C8.1875 13.2818 8.1875 17.4042 8.1875 25.6491V34.3941Z" fill="#2E608E"/>
<path d="M51.9126 22.0716C51.9126 17.75 51.9126 15.5891 52.5934 13.8847C53.5011 11.612 55.2423 9.80643 57.4337 8.86507C59.0773 8.15906 61.161 8.15906 65.3282 8.15906H74.272C78.4392 8.15906 80.5229 8.15906 82.1665 8.86507C84.3579 9.80643 86.0991 11.612 87.0068 13.8847C87.6876 15.5891 87.6876 17.75 87.6876 22.0716C87.6876 26.3932 87.6876 28.554 87.0068 30.2584C86.0991 32.5311 84.3579 34.3367 82.1665 35.278C80.5229 35.9841 78.4392 35.9841 74.272 35.9841H65.3282C61.161 35.9841 59.0773 35.9841 57.4337 35.278C55.2423 34.3367 53.5011 32.5311 52.5934 30.2584C51.9126 28.554 51.9126 26.3932 51.9126 22.0716Z" fill="#2E608E"/>
<path d="M8.1875 73.7466C8.1875 78.0682 8.1875 80.229 8.8683 81.9335C9.77604 84.2061 11.5172 86.0117 13.7086 86.9531C15.3522 87.6591 17.4359 87.6591 21.6031 87.6591H30.5469C34.7141 87.6591 36.7978 87.6591 38.4414 86.9531C40.6328 86.0117 42.374 84.2061 43.2817 81.9335C43.9625 80.229 43.9625 78.0682 43.9625 73.7466C43.9625 69.425 43.9625 67.2642 43.2817 65.5597C42.374 63.2871 40.6328 61.4815 38.4414 60.5401C36.7978 59.8341 34.7141 59.8341 30.5469 59.8341H21.6031C17.4359 59.8341 15.3522 59.8341 13.7086 60.5401C11.5172 61.4815 9.77604 63.2871 8.8683 65.5597C8.1875 67.2642 8.1875 69.425 8.1875 73.7466Z" fill="#2E608E"/>
</svg>
