<svg width="96" height="96" viewBox="0 0 96 96" fill="none" xmlns="http://www.w3.org/2000/svg">
<path d="M26.609 18.352C20.7607 18.4595 17.3953 18.9544 15.1169 21.2328C12.2063 24.1434 12.2063 28.828 12.2063 38.1972V58.0722C12.2063 67.4413 12.2063 72.1259 15.1169 75.0365C17.3953 77.3149 20.7606 77.8098 26.609 77.9173C26.6089 77.9163 26.6091 77.9184 26.609 77.9173C26.1187 74.2703 26.1185 69.713 26.1188 64.4273V31.8423C26.1185 26.5566 26.1187 21.999 26.609 18.352C26.6092 18.3509 26.6089 18.3531 26.609 18.352Z" fill="#2E608E"/>
<path fill-rule="evenodd" clip-rule="evenodd" d="M35.5748 11.8758C32.082 15.3686 32.082 20.9901 32.082 32.2331V64.0331C32.082 75.276 32.082 80.8976 35.5748 84.3903C39.0675 87.883 44.689 87.883 55.932 87.883H59.907C71.15 87.883 76.7715 87.883 80.2643 84.3903C83.757 80.8976 83.757 75.276 83.757 64.0331V32.2331C83.757 20.9901 83.757 15.3686 80.2643 11.8758C76.7715 8.38306 71.15 8.38306 59.907 8.38306H55.932C44.689 8.38306 39.0675 8.38306 35.5748 11.8758ZM60.0276 30.125C58.8633 28.9607 56.9757 28.9607 55.8115 30.125L45.874 40.0625C44.7097 41.2267 44.7097 43.1144 45.874 44.2786C47.0382 45.4429 48.9258 45.4429 50.0901 44.2786L54.9383 39.4304V64.0331C54.9383 65.6796 56.273 67.0143 57.9195 67.0143C59.566 67.0143 60.9008 65.6796 60.9008 64.0331V39.4304L65.749 44.2786C66.9132 45.4429 68.8008 45.4429 69.9651 44.2786C71.1293 43.1144 71.1293 41.2267 69.9651 40.0625L60.0276 30.125Z" fill="#2E608E"/>
</svg>
