<svg width="97" height="97" viewBox="0 0 97 97" fill="none" xmlns="http://www.w3.org/2000/svg">
<path fill-rule="evenodd" clip-rule="evenodd" d="M12.7625 42.0709C12.7625 29.3606 12.7625 23.0054 14.2631 20.8673C15.7638 18.7293 21.7394 16.6838 33.6905 12.5929L35.9675 11.8135C42.1973 9.681 45.3122 8.61475 48.5375 8.61475C51.7628 8.61475 54.8777 9.681 61.1076 11.8135L63.3845 12.5929C75.3357 16.6838 81.3113 18.7293 82.8119 20.8673C84.3125 23.0054 84.3125 29.3606 84.3125 42.0709V48.3304C84.3125 70.7417 67.4626 81.6176 56.8907 86.2357C54.023 87.4884 52.5891 88.1147 48.5375 88.1147C44.486 88.1147 43.0521 87.4884 40.1843 86.2357C29.6124 81.6176 12.7625 70.7417 12.7625 48.3304V42.0709ZM56.4875 36.4397C56.4875 40.8304 52.9282 44.3897 48.5375 44.3897C44.1469 44.3897 40.5875 40.8304 40.5875 36.4397C40.5875 32.0491 44.1469 28.4897 48.5375 28.4897C52.9282 28.4897 56.4875 32.0491 56.4875 36.4397ZM48.5375 68.2397C64.4375 68.2397 64.4375 64.6804 64.4375 60.2897C64.4375 55.8991 57.3188 52.3397 48.5375 52.3397C39.7562 52.3397 32.6375 55.8991 32.6375 60.2897C32.6375 64.6804 32.6375 68.2397 48.5375 68.2397Z" fill="white"/>
</svg>
