<svg width="97" height="97" viewBox="0 0 97 97" fill="none" xmlns="http://www.w3.org/2000/svg">
<path fill-rule="evenodd" clip-rule="evenodd" d="M60.1618 8.7074H68.1358C75.6538 8.7074 79.4128 8.7074 81.7483 11.0429C84.0838 13.3785 84.0838 17.1374 84.0838 24.6554V85.4572H88.0708C89.7223 85.4572 91.0611 86.796 91.0611 88.4474C91.0611 90.0989 89.7223 91.4377 88.0708 91.4377H8.3308C6.67933 91.4377 5.34055 90.0989 5.34055 88.4474C5.34055 86.796 6.67933 85.4572 8.3308 85.4572H12.3178V36.6164C12.3178 29.0984 12.3178 25.3395 14.6533 23.0039C16.9889 20.6684 20.7478 20.6684 28.2658 20.6684H44.2138C51.7318 20.6684 55.4908 20.6684 57.8263 23.0039C60.1618 25.3395 60.1618 29.0984 60.1618 36.6164V85.4572H66.1423V36.6164L66.1424 36.2596C66.1428 32.8083 66.1431 29.644 65.7971 27.0699C65.416 24.2353 64.5193 21.2392 62.0551 18.7751C59.591 16.3109 56.595 15.4143 53.7604 15.0332C51.2225 14.692 48.1109 14.6875 44.7162 14.6879C45.0523 13.1439 45.6132 11.9791 46.5493 11.0429C48.8849 8.7074 52.6439 8.7074 60.1618 8.7074ZM21.2886 32.6294C21.2886 30.9779 22.6273 29.6392 24.2788 29.6392H48.2008C49.8523 29.6392 51.1911 30.9779 51.1911 32.6294C51.1911 34.2809 49.8523 35.6197 48.2008 35.6197H24.2788C22.6273 35.6197 21.2886 34.2809 21.2886 32.6294ZM21.2886 44.5904C21.2886 42.9389 22.6273 41.6002 24.2788 41.6002H48.2008C49.8523 41.6002 51.1911 42.9389 51.1911 44.5904C51.1911 46.2419 49.8523 47.5807 48.2008 47.5807H24.2788C22.6273 47.5807 21.2886 46.2419 21.2886 44.5904ZM21.2886 56.5514C21.2886 54.8999 22.6273 53.5612 24.2788 53.5612H48.2008C49.8523 53.5612 51.1911 54.8999 51.1911 56.5514C51.1911 58.2029 49.8523 59.5417 48.2008 59.5417H24.2788C22.6273 59.5417 21.2886 58.2029 21.2886 56.5514ZM36.2398 73.4962C37.8913 73.4962 39.2301 74.835 39.2301 76.4864V85.4572H33.2496V76.4864C33.2496 74.835 34.5883 73.4962 36.2398 73.4962Z" fill="white"/>
</svg>
