<svg width="30" height="30" viewBox="0 0 30 30" fill="none" xmlns="http://www.w3.org/2000/svg">
<path d="M27.206 15.2747C27.206 21.8969 21.8377 27.2652 15.2155 27.2652C8.59332 27.2652 3.22498 21.8969 3.22498 15.2747C3.22498 8.65252 8.59332 3.28418 15.2155 3.28418C21.8377 3.28418 27.206 8.65252 27.206 15.2747Z" fill="white"/>
<path fill-rule="evenodd" clip-rule="evenodd" d="M15.2155 9.57921C15.7122 9.57921 16.1148 9.98183 16.1148 10.4785V14.9022L18.849 17.6364C19.2002 17.9876 19.2002 18.557 18.849 18.9082C18.4978 19.2594 17.9284 19.2594 17.5772 18.9082L14.5796 15.9106C14.411 15.742 14.3162 15.5132 14.3162 15.2747V10.4785C14.3162 9.98183 14.7188 9.57921 15.2155 9.57921Z" fill="#2E608E"/>
</svg>
