<svg width="64" height="64" viewBox="0 0 64 64" fill="none" xmlns="http://www.w3.org/2000/svg">
<path d="M5.7854 30.3992V33.0327C5.7854 41.69 5.7854 46.0187 8.17645 48.9322C8.61417 49.4656 9.10324 49.9547 9.63661 50.3924C12.5501 52.7834 16.8788 52.7834 25.5362 52.7834C34.1936 52.7834 38.5223 52.7834 41.4358 50.3924C41.9691 49.9547 42.4582 49.4656 42.8959 48.9322C44.7435 46.681 45.1634 43.5848 45.2589 38.2995L47.0207 39.1664C52.1451 41.7286 54.7073 43.0097 56.5807 41.8518C58.4542 40.694 58.4542 37.8294 58.4542 32.1002V31.3317C58.4542 25.6025 58.4542 22.7379 56.5807 21.58C54.7073 20.4222 52.1451 21.7033 47.0207 24.2655L45.2589 25.1324C45.1634 19.8471 44.7435 16.7509 42.8959 14.4996C42.4582 13.9663 41.9691 13.4772 41.4358 13.0395C38.5223 10.6484 34.1936 10.6484 25.5362 10.6484C16.8788 10.6484 12.5501 10.6484 9.63661 13.0395C9.10324 13.4772 8.61417 13.9663 8.17645 14.4996C5.7854 17.4132 5.7854 21.7418 5.7854 30.3992Z" fill="white"/>
</svg>
