<svg width="65" height="64" viewBox="0 0 65 64" fill="none" xmlns="http://www.w3.org/2000/svg">
<path d="M16.4187 12.2642C16.4187 9.78743 16.4187 8.54906 16.9513 7.62666C17.3001 7.02238 17.8019 6.52059 18.4062 6.17171C19.3286 5.63916 20.567 5.63916 23.0437 5.63916H41.5937C44.0704 5.63916 45.3088 5.63916 46.2312 6.17171C46.8355 6.52059 47.3373 7.02238 47.6861 7.62666C48.2187 8.54906 48.2187 9.78743 48.2187 12.2642C48.2187 14.7409 48.2187 15.9793 47.6861 16.9017C47.3373 17.5059 46.8355 18.0077 46.2312 18.3566C45.3088 18.8892 44.0704 18.8892 41.5937 18.8892H23.0437C20.567 18.8892 19.3286 18.8892 18.4062 18.3566C17.8019 18.0077 17.3001 17.5059 16.9513 16.9017C16.4187 15.9793 16.4187 14.7409 16.4187 12.2642Z" fill="white"/>
<path d="M13.7747 10.7793C13.3648 11.1434 13.1066 11.6744 13.1066 12.2658C13.1066 12.8571 13.3648 13.3882 13.7747 13.7522C13.769 13.3156 13.769 12.8541 13.7691 12.3724V12.1592C13.769 11.6774 13.769 11.2159 13.7747 10.7793Z" fill="white"/>
<path d="M27.0192 42.7395V53.3395C27.0192 55.8379 27.0192 57.0871 27.7953 57.8633C28.5715 58.6395 29.8207 58.6395 32.3192 58.6395C34.8176 58.6395 36.0668 58.6395 36.843 57.8633C37.6192 57.0871 37.6192 55.8379 37.6192 53.3395V42.7395C37.6192 40.241 37.6192 38.9918 36.843 38.2156C36.0668 37.4395 34.8176 37.4395 32.3192 37.4395C29.8207 37.4395 28.5715 37.4395 27.7953 38.2156C27.0192 38.9918 27.0192 40.241 27.0192 42.7395Z" fill="white"/>
<path d="M50.8528 14.2523H50.9876C52.1925 14.2523 53.0011 14.2533 53.6279 14.2942C54.2379 14.334 54.536 14.4054 54.7321 14.4826C55.5873 14.8193 56.2642 15.4962 56.6008 16.3514C56.6781 16.5475 56.7495 16.8456 56.7893 17.4556C56.8301 18.0824 56.8311 18.891 56.8311 20.0959C56.8311 22.3148 56.8031 22.9227 56.642 23.3787C56.3657 24.1612 55.8057 24.8114 55.0729 25.2008C54.6459 25.4277 54.0488 25.5456 51.8544 25.8747L40.9275 27.5138C38.8799 27.8208 37.1611 28.0786 35.803 28.4605C34.3639 28.8652 33.0905 29.4695 32.0966 30.6236C31.0813 31.8026 30.6621 33.2144 30.4816 34.8062C31.0226 34.7896 31.5941 34.7897 32.174 34.7899H32.4624C33.1646 34.7897 33.8544 34.7896 34.4929 34.8191C34.6254 33.9689 34.8304 33.5406 35.1086 33.2175C35.3987 32.8807 35.8439 32.5781 36.879 32.2871C37.9678 31.9809 39.4368 31.7569 41.641 31.4262L52.7598 29.7586C54.4843 29.5014 55.8275 29.3011 56.9381 28.711C58.5502 27.8544 59.7821 26.4239 60.3901 24.7025C60.8089 23.5167 60.8078 22.1587 60.8063 20.4151L60.8061 20.0319C60.8061 18.9074 60.8062 17.9685 60.7559 17.197C60.7035 16.3942 60.5907 15.6349 60.2995 14.8952C59.5588 13.0138 58.0697 11.5247 56.1883 10.784C55.4486 10.4927 54.6893 10.38 53.8864 10.3276C53.1149 10.2773 52.1761 10.2773 51.0515 10.2773H50.8528C50.8682 10.8568 50.8682 11.4879 50.8682 12.1582V12.3715C50.8682 13.0418 50.8682 13.6729 50.8528 14.2523Z" fill="white"/>
</svg>
