<svg width="65" height="64" viewBox="0 0 65 64" fill="none" xmlns="http://www.w3.org/2000/svg">
<path fill-rule="evenodd" clip-rule="evenodd" d="M27.3058 16.0141V47.8141C27.3058 51.5244 27.3058 53.3796 26.5838 54.7967C25.9486 56.0433 24.9351 57.0568 23.6885 57.692C22.2714 58.4141 20.4162 58.4141 16.7058 58.4141C12.9955 58.4141 11.1403 58.4141 9.72315 57.692C8.47657 57.0568 7.46308 56.0433 6.82792 54.7967C6.10583 53.3796 6.10583 51.5244 6.10583 47.8141V16.0141C6.10583 12.3037 6.10583 10.4485 6.82792 9.03138C7.46308 7.7848 8.47657 6.77131 9.72315 6.13614C11.1403 5.41406 12.9955 5.41406 16.7058 5.41406C20.4162 5.41406 22.2714 5.41406 23.6885 6.13614C24.9351 6.77131 25.9486 7.7848 26.5838 9.03138C27.3058 10.4485 27.3058 12.3037 27.3058 16.0141ZM19.3558 52.4516C20.4535 52.4516 21.3433 51.5617 21.3433 50.4641C21.3433 49.3664 20.4535 48.4766 19.3558 48.4766H14.0558C12.9582 48.4766 12.0683 49.3664 12.0683 50.4641C12.0683 51.5617 12.9582 52.4516 14.0558 52.4516H19.3558Z" fill="white"/>
<path d="M51.3147 28.2423L35.8438 44.3796C33.9097 46.397 32.9426 47.4057 32.1117 47.0718C31.2808 46.7378 31.2808 45.3405 31.2808 42.5457L31.2808 20.7146C31.2839 18.9657 31.9785 17.2889 33.213 16.05L36.008 13.2549L37.1483 12.3832C39.8094 10.3487 41.14 9.33143 42.5893 9.01887C43.7822 8.76159 45.023 8.83881 46.1748 9.24199C47.5741 9.73181 48.7683 10.9062 51.1567 13.255C53.8055 15.9038 55.13 17.2282 55.621 18.7451C56.0398 20.0387 56.0504 21.4298 55.6514 22.7296C55.1835 24.2537 53.8939 25.5832 51.3147 28.2423Z" fill="white"/>
<path d="M34.6987 58.4141H48.2393C51.9496 58.4141 53.8048 58.4141 55.222 57.692C56.4685 57.0568 57.482 56.0433 58.1172 54.7967C58.8393 53.3796 58.8393 51.5244 58.8393 47.8141C58.8393 44.1037 58.8393 42.2485 58.1172 40.8314C57.482 39.5848 56.4685 38.5713 55.222 37.9361C53.8048 37.2141 51.9496 37.2141 48.2393 37.2141H47.657L32.2827 52.5787C31.6412 53.2197 31.2808 54.0126 31.2808 54.9194C31.2808 56.8071 32.8111 58.4141 34.6987 58.4141Z" fill="white"/>
</svg>
