<svg width="65" height="64" viewBox="0 0 65 64" fill="none" xmlns="http://www.w3.org/2000/svg">
<path d="M9.68904 13.1379C9.89611 13.0005 10.1569 13.1798 10.1238 13.4261C9.87542 15.2737 9.81989 17.4462 9.80743 19.8147C9.8066 19.973 9.80598 20.1321 9.80549 20.2921C9.80428 20.5016 9.80355 20.75 9.80355 21.0471V43.2328C9.80355 43.5299 9.80428 43.7784 9.80549 43.9878C9.80598 44.1478 9.8066 44.307 9.80743 44.4653C9.81989 46.8339 9.87539 49.0071 10.1238 50.8548C10.1566 51.1009 9.896 51.2804 9.68904 51.143C7.86053 49.9294 6.56412 47.9857 6.20509 45.7191C6.10597 45.0933 6.10583 44.3831 6.1061 43.3929V20.888C6.10583 19.8978 6.10596 19.1867 6.20509 18.5608C6.56417 16.2945 7.86078 14.3514 9.68904 13.1379Z" fill="white"/>
<path d="M55.0881 13.4261C55.055 13.1798 55.3158 13.0005 55.5228 13.1379C57.3513 14.3514 58.6487 16.2944 59.0078 18.5608C59.1069 19.1867 59.106 19.8978 59.1058 20.888V43.3929C59.106 44.383 59.1069 45.0933 59.0078 45.7191C58.6488 47.9857 57.3514 49.9294 55.5228 51.143C55.3159 51.2801 55.0553 51.1008 55.0881 50.8548C55.353 48.884 55.3986 46.5434 55.4064 43.9898C55.4076 43.7799 55.4083 43.5309 55.4083 43.2328V21.0471C55.4083 20.7495 55.4076 20.5008 55.4064 20.2912C55.3986 17.7374 55.353 15.397 55.0881 13.4261Z" fill="white"/>
<path d="M41.459 27.7074C44.1818 27.7074 46.3889 29.9144 46.3889 32.6373C46.3888 35.3602 44.1818 37.5673 41.459 37.5673C38.7361 37.5673 36.5291 35.3602 36.529 32.6373C36.529 29.9144 38.7361 27.7074 41.459 27.7074Z" fill="white"/>
<path fill-rule="evenodd" clip-rule="evenodd" d="M51.7109 42.1362C51.7109 45.5075 51.711 48.2256 51.4236 50.3628C51.1253 52.5814 50.487 54.4495 49.0033 55.9332C47.5196 57.4169 45.6516 58.0552 43.4329 58.3535C41.2958 58.6409 38.5784 58.6408 35.2073 58.6408H30.0066C26.6353 58.6408 23.9172 58.6409 21.78 58.3535C19.5613 58.0552 17.6932 57.4169 16.2096 55.9332C14.7259 54.4495 14.0876 52.5814 13.7892 50.3628C13.5019 48.2256 13.5019 45.5075 13.502 42.1362V22.1447C13.5019 18.7735 13.5019 16.0553 13.7892 13.9182C14.0876 11.6995 14.7259 9.8314 16.2096 8.34772C17.6933 6.86409 19.5612 6.2257 21.78 5.92739C23.9171 5.64006 26.6344 5.64009 30.0056 5.64014H35.2063C38.5773 5.64009 41.2948 5.64011 43.4319 5.92739C45.6508 6.22571 47.5195 6.86392 49.0033 8.34772C50.487 9.83141 51.1253 11.6995 51.4236 13.9182C51.711 16.0553 51.7109 18.7735 51.7109 22.1447V42.1362ZM17.1994 42.0013C17.1994 45.5397 17.2033 48.0078 17.4537 49.8698C17.6969 51.6785 18.1417 52.6366 18.824 53.3188C19.5062 54.001 20.4642 54.4459 22.273 54.6891C24.135 54.9394 26.603 54.9433 30.1415 54.9433H35.0714C38.6097 54.9433 41.0779 54.9394 42.9399 54.6891C44.7486 54.4459 45.7066 54.0009 46.3889 53.3188C47.0711 52.6366 47.516 51.6785 47.7592 49.8698C48.0095 48.0078 48.0134 45.5397 48.0134 42.0013V22.2796C48.0134 18.7412 48.0095 16.2732 47.7592 14.4111C47.516 12.6024 47.0711 11.6444 46.3889 10.9621C45.7067 10.2799 44.7485 9.83505 42.9399 9.59185C41.0779 9.34151 38.6098 9.33759 35.0714 9.33759H30.1415C26.6032 9.33759 24.135 9.34155 22.273 9.59185C20.4643 9.83501 19.5062 10.28 18.824 10.9621C18.1417 11.6444 17.6969 12.6024 17.4537 14.4111C17.2033 16.2732 17.1994 18.7412 17.1994 22.2796V42.0013Z" fill="white"/>
</svg>
