<svg width="64" height="63" viewBox="0 0 64 63" fill="none" xmlns="http://www.w3.org/2000/svg">
<path fill-rule="evenodd" clip-rule="evenodd" d="M5.87036 17.6452C5.87036 10.9689 11.2826 5.55664 17.959 5.55664C24.6353 5.55664 30.0476 10.9689 30.0476 17.6452C30.0476 24.3216 24.6353 29.7339 17.959 29.7339C11.2826 29.7339 5.87036 24.3216 5.87036 17.6452Z" fill="white"/>
<path fill-rule="evenodd" clip-rule="evenodd" d="M33.865 45.6399C33.865 38.9636 39.2773 33.5513 45.9536 33.5513C52.63 33.5513 58.0422 38.9636 58.0422 45.6399C58.0422 52.3163 52.63 57.7285 45.9536 57.7285C39.2773 57.7285 33.865 52.3163 33.865 45.6399Z" fill="white"/>
<path d="M5.87036 45.9898C5.87036 40.4562 5.87036 37.6894 7.58945 35.9703C9.30854 34.2512 12.0754 34.2512 17.609 34.2512C23.1427 34.2512 25.9095 34.2512 27.6286 35.9703C29.3477 37.6894 29.3477 40.4562 29.3477 45.9898C29.3477 51.5235 29.3477 54.2903 27.6286 56.0094C25.9095 57.7285 23.1427 57.7285 17.609 57.7285C12.0754 57.7285 9.30854 57.7285 7.58945 56.0094C5.87036 54.2903 5.87036 51.5235 5.87036 45.9898Z" fill="white"/>
<path d="M34.5649 17.2953C34.5649 11.7616 34.5649 8.99482 36.284 7.27573C38.0031 5.55664 40.7699 5.55664 46.3036 5.55664C51.8372 5.55664 54.6041 5.55664 56.3231 7.27573C58.0422 8.99482 58.0422 11.7616 58.0422 17.2953C58.0422 22.829 58.0422 25.5958 56.3231 27.3149C54.6041 29.034 51.8372 29.034 46.3036 29.034C40.7699 29.034 38.0031 29.034 36.284 27.3149C34.5649 25.5958 34.5649 22.829 34.5649 17.2953Z" fill="white"/>
</svg>
