<svg width="65" height="65" viewBox="0 0 65 65" fill="none" xmlns="http://www.w3.org/2000/svg">
<path fill-rule="evenodd" clip-rule="evenodd" d="M9.83794 14.1327C8.83752 15.5581 8.83752 19.7949 8.83752 28.2685V32.4415C8.83752 47.3824 20.0708 54.6329 27.1187 57.7116C29.0306 58.5468 29.9865 58.9644 32.6875 58.9644C35.3886 58.9644 36.3445 58.5468 38.2563 57.7116C45.3043 54.6329 56.5375 47.3824 56.5375 32.4415V28.2685C56.5375 19.7949 56.5375 15.5581 55.5371 14.1327C54.5367 12.7074 50.553 11.3437 42.5855 8.61646L41.0676 8.09686C36.9143 6.67519 34.8377 5.96436 32.6875 5.96436C30.5373 5.96436 28.4607 6.67519 24.3075 8.09685L22.7895 8.61646C14.8221 11.3437 10.8384 12.7074 9.83794 14.1327ZM40.7951 28.4881C41.5261 27.6693 41.455 26.4129 40.6362 25.6818C39.8174 24.9507 38.561 25.0219 37.83 25.8407L29.8482 34.7802L27.5451 32.2006C26.814 31.3819 25.5576 31.3107 24.7388 32.0418C23.92 32.7729 23.8489 34.0293 24.58 34.8481L28.3657 39.0881C28.7428 39.5104 29.2821 39.7519 29.8482 39.7519C30.4144 39.7519 30.9537 39.5104 31.3308 39.0881L40.7951 28.4881Z" fill="white"/>
</svg>
