<svg width="64" height="65" viewBox="0 0 64 65" fill="none" xmlns="http://www.w3.org/2000/svg">
<path d="M40.6545 28.9902C38.04 25.8618 36.7327 24.2976 35.2299 24.5385C33.7271 24.7795 33.0241 26.666 31.618 30.4389L31.2542 31.415C30.8546 32.4872 30.6549 33.0233 30.2662 33.4182C29.8774 33.8131 29.3438 34.0221 28.2765 34.4401L27.3048 34.8207C23.549 36.2917 21.6711 37.0272 21.4569 38.5305C21.2428 40.0339 22.8342 41.3094 26.017 43.8605L26.8404 44.5205C27.7448 45.2455 28.1971 45.608 28.4588 46.1041C28.7206 46.6003 28.7623 47.1739 28.8457 48.3213L28.9215 49.3658C29.2149 53.4034 29.3616 55.4221 30.732 56.1103C32.1024 56.7985 33.789 55.7003 37.1622 53.504L38.0348 52.9358C38.9934 52.3117 39.4726 51.9997 40.0231 51.9114C40.5736 51.8231 41.1331 51.9687 42.2519 52.2598L43.2704 52.5248C47.2076 53.5491 49.1761 54.0612 50.2373 52.9832C51.2984 51.9052 50.7494 49.951 49.6513 46.0424L49.3672 45.0313C49.0552 43.9206 48.8991 43.3653 48.9776 42.8146C49.056 42.2639 49.3601 41.7801 49.9682 40.8127L50.5218 39.9319C52.6617 36.5275 53.7317 34.8252 53.0171 33.4708C52.3025 32.1164 50.2766 32.0067 46.2248 31.7874L45.1765 31.7307C44.0252 31.6684 43.4495 31.6372 42.9474 31.3851C42.4454 31.133 42.0739 30.6885 41.331 29.7995L40.6545 28.9902Z" fill="white"/>
<path d="M39.6643 14.3575L40.1493 15.7403C40.6821 17.2592 40.9485 18.0187 41.4667 18.5781C41.985 19.1375 42.6965 19.4336 44.1196 20.0258L45.4152 20.565C50.4229 22.6489 52.9268 23.6909 53.2124 25.8206C53.3312 26.7071 53.033 27.5377 52.3382 28.466C52.1033 28.4024 51.8773 28.3506 51.6648 28.3074C50.2705 28.0239 48.497 27.9284 46.6895 27.831L45.3917 27.7608C45.1421 27.7473 44.9481 27.7367 44.7818 27.7259C44.6717 27.597 44.5448 27.4454 44.3813 27.2497L43.5449 26.2489C42.378 24.8519 41.2361 23.4851 40.1743 22.5362C39.0419 21.5243 37.149 20.2044 34.601 20.613C32.0258 21.0258 30.6522 22.8995 29.9111 24.2369C29.2245 25.4759 28.607 27.1342 27.9818 28.8131L27.5298 30.0262C27.4534 30.2312 27.3922 30.3954 27.3382 30.5366C27.1969 30.5933 27.0325 30.6577 26.8272 30.7381L25.6202 31.2108C23.9484 31.8651 22.2989 32.5107 21.0707 33.2174C19.749 33.9778 17.8905 35.3824 17.522 37.9692C17.157 40.5313 18.5215 42.4017 19.5544 43.5109C20.3243 44.3376 21.3586 45.2096 22.463 46.1033C18.3062 47.231 16.0952 47.6516 14.8386 46.2952C13.4237 44.7681 14.1558 41.9995 15.6199 36.4625L15.9987 35.03C16.4147 33.4565 16.6228 32.6698 16.5181 31.8896C16.4135 31.1095 16.0081 30.4242 15.1973 29.0537L14.4592 27.8059C11.6059 22.9829 10.1793 20.5714 11.1321 18.6527C12.0849 16.7339 14.7861 16.5785 20.1885 16.2679L21.5862 16.1875C23.1214 16.0992 23.889 16.0551 24.5584 15.6979C25.2277 15.3408 25.723 14.7111 26.7137 13.4517L27.6156 12.3051C31.1017 7.87325 32.8447 5.65731 34.8484 5.99862C36.8521 6.33994 37.7895 9.01246 39.6643 14.3575Z" fill="white"/>
</svg>
