<svg width="64" height="64" viewBox="0 0 64 64" fill="none" xmlns="http://www.w3.org/2000/svg">
<path fill-rule="evenodd" clip-rule="evenodd" d="M9.33677 54.5332C13.2176 58.4141 19.4637 58.4141 31.9559 58.4141C44.4482 58.4141 50.6943 58.4141 54.5751 54.5332C58.4559 50.6524 58.4559 44.4063 58.4559 31.9141C58.4559 19.4218 58.4559 13.1757 54.5751 9.2949C50.6943 5.41406 44.4482 5.41406 31.9559 5.41406C19.4637 5.41406 13.2176 5.41406 9.33677 9.2949C5.45593 13.1757 5.45593 19.4218 5.45593 31.9141C5.45593 44.4063 5.45593 50.6524 9.33677 54.5332ZM22.6006 29.1837C21.8244 29.9599 21.8244 31.2183 22.6006 31.9944C23.3767 32.7706 24.6351 32.7706 25.4113 31.9944L31.9559 25.4498L38.5006 31.9944C39.2767 32.7706 40.5351 32.7706 41.3113 31.9944C42.0875 31.2183 42.0875 29.9599 41.3113 29.1837L33.3613 21.2337C32.5851 20.4575 31.3267 20.4575 30.5506 21.2337L22.6006 29.1837ZM22.6006 42.5944C21.8244 41.8183 21.8244 40.5599 22.6006 39.7837L30.5506 31.8337C31.3267 31.0575 32.5851 31.0575 33.3613 31.8337L41.3113 39.7837C42.0875 40.5599 42.0875 41.8183 41.3113 42.5944C40.5351 43.3706 39.2767 43.3706 38.5006 42.5944L31.9559 36.0498L25.4113 42.5944C24.6351 43.3706 23.3767 43.3706 22.6006 42.5944Z" fill="white"/>
</svg>
