<svg width="250" height="82" viewBox="0 0 250 82" fill="none" xmlns="http://www.w3.org/2000/svg">
<path d="M105.661 24.3024H112.035L123.216 52.6315H116.37L114.31 46.9442H103.407L101.326 52.6315H94.458L105.661 24.3024ZM105.554 41.3213H112.185L108.902 32.0286H108.837L105.554 41.3213Z" fill="white"/>
<path d="M125.653 24.3024H132.07V47.0086H142.35V52.6315H125.653V24.3024Z" fill="white"/>
<path d="M155.71 24.3024H162.084L173.265 52.6315H166.419L164.358 46.9442H153.456L151.374 52.6315H144.507L155.71 24.3024ZM155.602 41.3213H162.234L158.95 32.0286H158.886L155.602 41.3213Z" fill="white"/>
<path d="M187.098 37.9948L197.872 52.6315H190.21L181.497 40.2483V52.6315H175.08V24.3024H181.497V35.8916L189.523 24.3024H196.756L187.098 37.9948Z" fill="white"/>
<path d="M206.16 38.4455C206.16 40.0623 206.489 41.5288 207.148 42.8451C207.82 44.1471 208.743 45.1844 209.916 45.957C211.104 46.7296 212.477 47.1159 214.037 47.1159C215.596 47.1159 216.963 46.7296 218.136 45.957C219.323 45.1844 220.246 44.1471 220.904 42.8451C221.577 41.5288 221.913 40.0623 221.913 38.4455C221.913 36.8288 221.577 35.3694 220.904 34.0674C220.246 32.7654 219.323 31.7281 218.136 30.9555C216.963 30.1686 215.596 29.7751 214.037 29.7751C212.477 29.7751 211.104 30.1686 209.916 30.9555C208.743 31.7281 207.82 32.7654 207.148 34.0674C206.489 35.3694 206.16 36.8288 206.16 38.4455ZM199.486 38.4455C199.486 36.3852 199.851 34.468 200.58 32.6939C201.31 30.9054 202.333 29.3459 203.649 28.0153C204.966 26.6847 206.511 25.6474 208.285 24.9034C210.059 24.1594 211.976 23.7874 214.037 23.7874C216.126 23.7874 218.05 24.1594 219.81 24.9034C221.584 25.6474 223.122 26.6847 224.424 28.0153C225.74 29.3459 226.756 30.9054 227.471 32.6939C228.201 34.468 228.566 36.3852 228.566 38.4455C228.566 40.5201 228.215 42.4516 227.514 44.2401C226.813 46.0142 225.812 47.5738 224.51 48.9187C223.208 50.2493 221.67 51.2866 219.896 52.0306C218.121 52.7746 216.168 53.1466 214.037 53.1466C211.862 53.1466 209.88 52.7746 208.092 52.0306C206.318 51.2866 204.787 50.2493 203.499 48.9187C202.211 47.5738 201.217 46.0142 200.516 44.2401C199.829 42.4516 199.486 40.5201 199.486 38.4455ZM218.35 22.5855C217.478 22.5855 216.734 22.2779 216.118 21.6627C215.517 21.0332 215.217 20.2892 215.217 19.4307C215.217 18.5723 215.517 17.8354 216.118 17.2202C216.734 16.5906 217.478 16.2759 218.35 16.2759C219.223 16.2759 219.96 16.5906 220.561 17.2202C221.176 17.8354 221.484 18.5723 221.484 19.4307C221.484 20.3035 221.176 21.0475 220.561 21.6627C219.96 22.2779 219.223 22.5855 218.35 22.5855ZM209.723 22.5855C208.85 22.5855 208.106 22.2779 207.491 21.6627C206.89 21.0332 206.59 20.2892 206.59 19.4307C206.59 18.5723 206.89 17.8354 207.491 17.2202C208.106 16.5906 208.85 16.2759 209.723 16.2759C210.581 16.2759 211.318 16.5906 211.933 17.2202C212.549 17.8354 212.856 18.5723 212.856 19.4307C212.856 20.3035 212.549 21.0475 211.933 21.6627C211.318 22.2779 210.581 22.5855 209.723 22.5855Z" fill="white"/>
<path d="M232.416 24.3024H238.833V47.0086H249.113V52.6315H232.416V24.3024Z" fill="white"/>
<path d="M179.323 61.6233H178.364V63.7392H177.887V61.6233H176.929L175.517 63.7392H174.951L176.528 61.3635L175.074 59.1248H175.598L176.92 61.1935H177.887V59.1248H178.364V61.1935H179.323L180.649 59.1248H181.178L179.715 61.3635L181.296 63.7392H180.73L179.323 61.6233Z" fill="white"/>
<path d="M182.406 59.1248H182.887V62.9505L185.838 59.1248H186.277V63.7392H185.8V59.923L182.845 63.7392H182.406V59.1248Z" fill="white"/>
<path d="M191.707 59.1248V63.7392H191.225V59.5451H189.001L188.949 61.0896C188.926 61.7272 188.879 62.2373 188.794 62.6293C188.713 63.0213 188.586 63.3094 188.421 63.4984C188.255 63.692 188.029 63.7865 187.755 63.7865C187.637 63.7865 187.514 63.7723 187.387 63.7392L187.429 63.3047C187.505 63.3236 187.576 63.3331 187.646 63.3331C187.84 63.3331 187.996 63.2575 188.118 63.1064C188.241 62.9552 188.331 62.7143 188.392 62.3931C188.454 62.072 188.496 61.6422 188.52 61.1085L188.586 59.1295H191.716L191.707 59.1248Z" fill="white"/>
<path d="M194.374 63.47C194.001 63.2622 193.713 62.9835 193.505 62.6293C193.293 62.2751 193.189 61.8736 193.189 61.4297C193.189 60.9857 193.293 60.5842 193.505 60.23C193.718 59.8758 194.006 59.5924 194.374 59.3893C194.747 59.1862 195.158 59.0823 195.616 59.0823C196.074 59.0823 196.48 59.1862 196.848 59.3893C197.216 59.5924 197.504 59.8711 197.712 60.23C197.925 60.589 198.028 60.9904 198.028 61.4344C198.028 61.8783 197.92 62.2798 197.712 62.6388C197.5 62.9977 197.212 63.2764 196.848 63.4795C196.48 63.6826 196.069 63.7865 195.616 63.7865C195.163 63.7865 194.747 63.6826 194.374 63.4795M196.603 63.1016C196.9 62.9363 197.127 62.7049 197.292 62.4168C197.457 62.124 197.542 61.7981 197.542 61.4391C197.542 61.0802 197.457 60.7543 197.292 60.4614C197.127 60.1686 196.891 59.9419 196.603 59.7766C196.305 59.6113 195.979 59.531 195.616 59.531C195.252 59.531 194.922 59.6113 194.624 59.7766C194.327 59.9419 194.096 60.1733 193.926 60.4614C193.756 60.7543 193.675 61.0802 193.675 61.4391C193.675 61.7981 193.76 62.124 193.926 62.4168C194.096 62.7096 194.332 62.9363 194.624 63.1016C194.922 63.2669 195.252 63.3472 195.616 63.3472C195.979 63.3472 196.31 63.2669 196.603 63.1016Z" fill="white"/>
<path d="M199.53 59.1248H200.011V62.9505L202.962 59.1248H203.401V63.7392H202.92V59.923L199.969 63.7392H199.53V59.1248ZM200.672 58.5627C200.479 58.4163 200.384 58.2038 200.38 57.9393H200.743C200.743 58.114 200.814 58.2558 200.941 58.3549C201.069 58.4588 201.244 58.5061 201.451 58.5061C201.659 58.5061 201.834 58.4588 201.961 58.3549C202.093 58.2558 202.16 58.1188 202.164 57.9393H202.528C202.528 58.2085 202.424 58.4163 202.23 58.5627C202.037 58.7092 201.777 58.7895 201.456 58.7895C201.135 58.7895 200.866 58.7139 200.677 58.5627" fill="white"/>
<path d="M208.878 61.6233H207.82V63.7392H207.343V59.1248H207.82V61.1935H208.878L210.436 59.1248H210.965L209.246 61.3682L211.059 63.7392H210.502L208.878 61.6233Z" fill="white"/>
<path d="M212.919 63.47C212.546 63.2622 212.258 62.9835 212.051 62.6293C211.838 62.2751 211.734 61.8736 211.734 61.4297C211.734 60.9857 211.838 60.5842 212.051 60.23C212.263 59.8758 212.551 59.5924 212.919 59.3893C213.292 59.1862 213.703 59.0823 214.161 59.0823C214.619 59.0823 215.025 59.1862 215.393 59.3893C215.762 59.5924 216.049 59.8711 216.257 60.23C216.47 60.589 216.574 60.9904 216.574 61.4344C216.574 61.8783 216.465 62.2798 216.257 62.6388C216.045 62.9977 215.757 63.2764 215.393 63.4795C215.025 63.6826 214.614 63.7865 214.161 63.7865C213.708 63.7865 213.292 63.6826 212.919 63.4795M215.148 63.1016C215.445 62.9363 215.672 62.7049 215.837 62.4168C216.002 62.124 216.087 61.7981 216.087 61.4391C216.087 61.0802 216.002 60.7543 215.837 60.4614C215.672 60.1686 215.436 59.9419 215.148 59.7766C214.85 59.6113 214.525 59.531 214.161 59.531C213.797 59.531 213.467 59.6113 213.17 59.7766C212.872 59.9419 212.641 60.1733 212.471 60.4614C212.301 60.7543 212.221 61.0802 212.221 61.4391C212.221 61.7981 212.306 62.124 212.471 62.4168C212.641 62.7096 212.877 62.9363 213.17 63.1016C213.467 63.2669 213.797 63.3472 214.161 63.3472C214.525 63.3472 214.855 63.2669 215.148 63.1016Z" fill="white"/>
<path d="M222.862 59.1248V63.7392H222.395V60.0505L220.582 63.1536H220.351L218.542 60.0694V63.7392H218.07V59.1248H218.476L220.478 62.549L222.461 59.1248H222.862Z" fill="white"/>
<path d="M228.632 59.1248V63.7392H228.15V59.5499H225.228V63.7392H224.751V59.1248H228.632Z" fill="white"/>
<path d="M234.056 59.1248V63.7392H233.575V59.5451H231.351L231.299 61.0896C231.276 61.7272 231.228 62.2373 231.143 62.6293C231.063 63.0213 230.936 63.3094 230.77 63.4984C230.605 63.692 230.379 63.7865 230.105 63.7865C229.987 63.7865 229.864 63.7723 229.736 63.7392L229.779 63.3047C229.855 63.3236 229.925 63.3331 229.996 63.3331C230.19 63.3331 230.346 63.2575 230.468 63.1064C230.591 62.9552 230.681 62.7143 230.742 62.3931C230.803 62.072 230.846 61.6422 230.87 61.1085L230.936 59.1295H234.066L234.056 59.1248Z" fill="white"/>
<path d="M239.207 63.3189V63.7392H235.94V59.1248H239.108V59.5499H236.431V61.1935H238.82V61.6044H236.431V63.3189H239.207Z" fill="white"/>
<path d="M242.144 61.6233H241.091V63.7392H240.614V59.1248H241.091V61.1935H242.144L243.707 59.1248H244.231L242.522 61.3682L244.335 63.7392H243.773L242.144 61.6233Z" fill="white"/>
<path d="M246.19 63.4748C245.822 63.2717 245.534 62.993 245.326 62.634C245.114 62.2751 245.01 61.8736 245.01 61.4297C245.01 60.9857 245.114 60.5842 245.326 60.2253C245.534 59.8663 245.827 59.5876 246.19 59.3846C246.558 59.1815 246.969 59.0776 247.427 59.0776C247.767 59.0776 248.088 59.1342 248.376 59.2476C248.669 59.3609 248.91 59.531 249.113 59.7482L248.801 60.06C248.442 59.6963 247.984 59.5121 247.437 59.5121C247.073 59.5121 246.743 59.5971 246.44 59.7624C246.138 59.9277 245.907 60.1591 245.742 60.4472C245.572 60.7401 245.487 61.0613 245.487 61.4202C245.487 61.7792 245.572 62.105 245.742 62.3931C245.912 62.686 246.148 62.908 246.44 63.078C246.743 63.2433 247.068 63.3283 247.437 63.3283C247.989 63.3283 248.447 63.1441 248.801 62.7757L249.113 63.0874C248.91 63.3094 248.664 63.4748 248.371 63.5881C248.079 63.7062 247.762 63.7629 247.418 63.7629C246.96 63.7629 246.549 63.6637 246.185 63.4559L246.19 63.4748Z" fill="white"/>
<path d="M172.349 58.8461H171.915V65.0145H172.349V58.8461Z" fill="white"/>
<path d="M98.1829 59.5451H96.5635V63.7345H96.0772V59.5451H94.4578V59.1201H98.1829V59.5451Z" fill="white"/>
<path d="M100.888 62.1381V63.7298H100.407V62.1381L98.5606 59.1201H99.0799L100.662 61.7083L102.243 59.1201H102.734L100.888 62.1381ZM99.1555 61.9209H102.116V62.2893H99.1555V61.9209Z" fill="white"/>
<path d="M106.865 59.5451C107.196 59.8285 107.366 60.2158 107.366 60.7023C107.366 61.1888 107.201 61.5808 106.865 61.8595C106.535 62.1381 106.072 62.2751 105.482 62.2751H104.245V63.7298H103.754V59.1154H105.482C106.072 59.1154 106.53 59.2523 106.865 59.5357M106.516 61.543C106.757 61.3447 106.879 61.0613 106.879 60.6929C106.879 60.3245 106.757 60.0316 106.516 59.8285C106.275 59.6302 105.926 59.5263 105.468 59.5263H104.24V61.8358H105.468C105.926 61.8358 106.275 61.7367 106.516 61.5336" fill="white"/>
<path d="M109.391 59.5451V61.406H111.384V61.7792H109.401V63.7345H108.919V61.7792H108.211V61.406H108.919V59.1201H111.851V59.5451H109.391Z" fill="white"/>
<path d="M116.275 61.1368C116.563 61.3824 116.704 61.7414 116.704 62.2184C116.704 62.6954 116.553 63.0922 116.246 63.352C115.94 63.607 115.501 63.7392 114.925 63.7392H113.093V59.1248H113.574V60.7732H115.024C115.567 60.7732 115.982 60.9007 116.27 61.1415M115.878 63.0686C116.1 62.8797 116.209 62.601 116.209 62.2326C116.209 61.5241 115.774 61.1746 114.901 61.1746H113.565V63.3567H114.901C115.326 63.3567 115.652 63.2622 115.873 63.0733M117.493 59.1295H117.974V63.744H117.493V59.1295Z" fill="white"/>
<path d="M123.725 59.1201V63.7345H123.243V61.6091H120.359V63.7345H119.872V59.1201H120.359V61.1793H123.243V59.1201H123.725Z" fill="white"/>
<path d="M129.272 62.1381V63.7345H128.791V62.1381L126.95 59.1201H127.469L129.046 61.713L130.632 59.1201H131.118L129.272 62.1381Z" fill="white"/>
<path d="M132.195 59.1201H132.677V62.9458L135.627 59.1201H136.066V63.7345H135.585V59.9182L132.634 63.7345H132.195V59.1201ZM133.337 58.558C133.144 58.4116 133.049 58.1991 133.045 57.9346H133.408C133.408 58.1093 133.479 58.251 133.607 58.3502C133.734 58.4541 133.904 58.5014 134.117 58.5014C134.329 58.5014 134.499 58.4541 134.626 58.3502C134.759 58.251 134.825 58.114 134.829 57.9346H135.193C135.193 58.2038 135.089 58.4116 134.896 58.558C134.702 58.7044 134.442 58.7847 134.121 58.7847C133.8 58.7847 133.531 58.7092 133.342 58.558" fill="white"/>
<path d="M141.538 61.6186H140.481V63.7345H140.009V59.1201H140.481V61.1935H141.538L143.101 59.1201H143.625L141.911 61.3635L143.724 63.7345H143.162L141.538 61.6186Z" fill="white"/>
<path d="M148.068 63.3142V63.7345H144.805V59.1201H147.969V59.5451H145.287V61.1888H147.676V61.5997H145.287V63.3142H148.068Z" fill="white"/>
<path d="M155.131 59.1201V63.7345H149.475V59.1201H149.956V63.3142H152.067V59.1201H152.548V63.3142H154.654V59.1201H155.131Z" fill="white"/>
<path d="M160.277 63.3142V63.7345H157.015V59.1201H160.178V59.5451H157.501V61.1888H159.89V61.5997H157.501V63.3142H160.277Z" fill="white"/>
<path d="M165.546 59.1201V63.7345H165.06V61.6091H162.175V63.7345H161.689V59.1201H162.175V61.1793H165.06V59.1201H165.546Z" fill="white"/>
<path d="M167.907 59.1201H167.425V63.7345H167.907V59.1201Z" fill="white"/>
<path d="M49.7589 9.78212C62.9003 13.8683 71.5941 23.2731 72.7027 36.5907C74.2625 55.3294 52.9658 54.0672 43.1888 49.7695C31.8792 44.7983 25.849 43.3367 16.3974 54.1458C26.9051 51.1146 32.4934 52.2688 39.9866 56.2806C55.9568 64.8308 83.6037 58.6727 81.0419 36.5907C78.8544 17.7391 65.3134 3.62877 46.6748 0.779423C27.5218 -2.14742 8.32527 10.0449 2.48834 28.6059C-4.11206 49.5948 7.90364 72.67 28.8305 79.2748C47.9415 85.3072 68.4049 75.1079 77.0528 58.3144C73.4925 60.8902 70.9127 62.0291 66.6376 63.0361C65.2719 63.3578 64.0181 64.0383 62.9771 64.9792C55.5033 71.7338 45.5398 75.6612 32.135 71.7076C15.7843 66.6235 4.82669 48.748 10.0415 31.9165C15.1267 15.5017 32.926 4.54747 49.7589 9.78212Z" fill="white"/>
<path d="M32.1179 22.6047C30.7144 24.6887 20.988 41.994 19.0597 45.0018C37.8117 32.3376 47.382 53.7302 64.4144 45.0018C64.5188 44.6821 54.5234 27.0447 50.1155 20.4617C47.4349 23.3313 44.1658 27.7717 39.5202 32.7953L35.6261 37.2804L39.5202 28.4738C36.3819 26.3265 33.7539 24.0363 32.1179 22.6047Z" fill="white"/>
</svg>
