<svg width="37" height="31" viewBox="0 0 37 31" fill="none" xmlns="http://www.w3.org/2000/svg">
<path d="M2.25842 13.6072C1.16076 13.6072 0.270923 14.4971 0.270923 15.5947C0.270923 16.6924 1.16076 17.5822 2.25842 17.5822V13.6072ZM35.6999 17.0001C36.4761 16.2239 36.4761 14.9655 35.6999 14.1894L23.0516 1.54098C22.2754 0.764812 21.017 0.764812 20.2408 1.54098C19.4646 2.31715 19.4646 3.57556 20.2408 4.35173L31.4838 15.5947L20.2408 26.8377C19.4646 27.6139 19.4646 28.8723 20.2408 29.6485C21.017 30.4246 22.2754 30.4246 23.0516 29.6485L35.6999 17.0001ZM2.25842 15.5947V17.5822H34.2946V15.5947V13.6072H2.25842V15.5947Z" fill="#F3F3F3"/>
</svg>
